<?xml version="1.0" encoding="iso-8859-1"?>
<!-- Generator: Adobe Illustrator 21.0.0, SVG Export Plug-In . SVG Version: 6.00 Build 0)  -->
<svg xmlns="http://www.w3.org/2000/svg" xmlns:xlink="http://www.w3.org/1999/xlink" version="1.1" id="Capa_1" x="0px" y="0px" viewBox="0 0 511.938 511.938" style="enable-background:new 0 0 511.938 511.938;" xml:space="preserve" width="512" height="512">
<path style="fill-rule:evenodd;clip-rule:evenodd;" d="M490.969,121.027l0,40.973c0,61.081-49.919,111-111,111h-83.016v16.835  c15.638-5.578,32.856-1.963,45,8.933c17.12-15.361,42.916-15.361,60.036,0c17.76-15.935,44.724-15.297,61.643,1.623  c8.072,8.072,13.121,19.28,13.334,31.641c0.939,54.529,1.409,110.22,0.944,164.753c-0.065,8.252-6.807,14.889-15.059,14.824  c-8.252-0.065-14.889-6.807-14.824-15.059c0.465-54.544,0-109.285-0.944-164.05c-0.339-19.616-28.462-20.074-30.041-1.495v11.415  c0,8.284-6.716,15-15,15c-8.284,0-15-6.716-15-15v-10.155h-0.054c0-18.9-27.912-20.103-29.946-1.629v11.784c0,8.284-6.716,15-15,15  c-8.284,0-15-6.716-15-15v-10.155h-0.09c0-18.898-27.91-20.092-29.983-1.69v11.845c0,8.284-6.716,15-15,15c-8.284,0-15-6.716-15-15  l-0.017-123.903c0-13.001-15.977-20.23-25.613-10.595c-2.805,2.805-4.423,6.585-4.423,10.595l-0.022,96.786l0.033,64.038  c0.37,4.261-1.074,8.651-4.335,11.912c-5.857,5.857-15.354,5.857-21.211,0l-29.12-29.12c-8.803-8.803-24.697-3.384-24.697,8.602  c0,4.802,1.982,10.045,5.24,14.84c29.668,43.677,43.281,63.404,68.763,103.394c4.433,6.957,2.387,16.192-4.57,20.625  c-6.957,4.433-16.192,2.387-20.625-4.57c-23.496-36.872-41.987-63.962-68.294-102.691c-13-19.138-15.617-44.036,1.758-61.411  c17.526-17.526,46.111-17.526,63.638,0l3.556,3.556L206.978,273h-75.01c-61.081,0-111-49.92-111-111c0-17.016,0-34.015,0-51  c0-61.08,49.919-111,111-111h248C449.631,0,490.969,54.771,490.969,121.027L490.969,121.027z M225.738,55.501  c-16.989,0-30.833,13.845-30.833,30.833v49.28c0,16.989,13.845,30.833,30.833,30.833h11.334c16.989,0,30.833-13.845,30.833-30.833  v-49.28c0-16.988-13.844-30.833-30.833-30.833H225.738L225.738,55.501z M237.072,85.501h-11.334c-0.427,0-0.833,0.406-0.833,0.833  v49.28c0,0.427,0.406,0.833,0.833,0.833h11.334c0.428,0,0.833-0.406,0.833-0.833v-49.28C237.905,85.907,237.5,85.501,237.072,85.501  L237.072,85.501z M97.293,75.13l26.287,80.978c4.408,13.569,24.134,14.144,28.66-0.608l26.785-80.126  c2.621-7.831-1.603-16.305-9.434-18.926c-7.831-2.621-16.305,1.603-18.926,9.434l-12.629,37.78l-12.267-37.79  c-2.556-7.863-11.004-12.165-18.867-9.609C99.039,58.819,94.736,67.267,97.293,75.13L97.293,75.13z M297.905,85.528h5v65.971  c0,8.284,6.716,15,15,15c8.284,0,15-6.716,15-15V85.528h5c8.284,0,15-6.716,15-15s-6.716-15-15-15c-13.334,0-26.665,0-39.999,0  c-8.284,0-15,6.716-15,15S289.621,85.528,297.905,85.528L297.905,85.528z M399.905,96V85.501c8.649,0,15.285-6.672,15.285-15  c0-8.284-6.716-15-15-15h-15.285c-8.284,0-15,6.716-15,15v80.997c0,8.284,6.716,15,15,15h15.502c8.284,0,15-6.716,15-15  c0-8.387-6.602-15-15.502-15V126c8.652,0,15.287-6.671,15.287-15S408.557,96,399.905,96L399.905,96z M296.953,243h83.016  c33.227,0,62.528-20.438,74.88-50.221C435.078,210.902,408.763,222,379.969,222h-83.016V243L296.953,243z M288.272,192h91.697  c44.52,0,81-36.48,81-81c0-44.519-36.48-81-81-81h-248c-44.52,0-81,36.48-81,81c0,44.52,36.48,81,81,81h83.627  C233.637,167.364,270.231,167.363,288.272,192L288.272,192z M206.916,222h-74.948c-28.794,0-55.11-11.098-74.88-29.221  C69.44,222.561,98.741,243,131.969,243h74.951C206.918,238.077,206.917,231.347,206.916,222z"/>















</svg>
